:FULLY-SPECIFIED
:FORCE-ALL-JOINTS-BE-3DOF
:DEGREES
2548
root 4.21177 13.6774 -23.3813 948.024 84.4711 -134.375
lfemur -38.0654 11.4056 -11.8656
ltibia 90.163 0 0
lfoot -27.5003 25.9003 0
ltoes -39.2273 0 0
rfemur -56.9653 -24.4221 9.42196
rtibia 62.8379 0 0
rfoot 1.66348 7.94232 0
rtoes 8.15178 0 0
lowerback 16.7048 -0.423035 -3.31906
upperback -1.06841 -0.86245 3.11435
thorax -10.4994 -0.0984206 5.52815
lowerneck 5.17125 -14.628 -15.1501
upperneck 0.0432932 -20.472 14.8208
head 2.27441 -10.3828 6.17266
lclavicle -2.86685e-14 1.69636e-14 0
lhumerus -53.3012 -45.075 114.878
lradius 107.545 0 0
lwrist 81.8948 0 0
lhand 9.10048 400.047 0
lfingers 7.12502 0 0
lthumb 34.2728 -653.228 0
rclavicle -2.86685e-14 1.69636e-14 0
rhumerus 8.62452 -15.5277 -60.013
rradius 75.7241 0 0
rwrist 27.6593 0 0
rhand -38.5354 -408.861 0
rfingers 7.12502 0 0
rthumb -11.555 281.5 0
2549
root 4.19827 13.6806 -23.4277 949.441 83.9663 -133.032
lfemur -38.174 11.3089 -11.98
ltibia 90.1521 0 0
lfoot -27.4626 26.0023 0
ltoes -39.2056 0 0
rfemur -57.0198 -24.2487 9.53254
rtibia 63.1123 0 0
rfoot 1.60785 7.66573 0
rtoes 8.15896 0 0
lowerback 16.7336 -0.402601 -3.30896
upperback -1.05584 -0.836379 3.10069
thorax -10.5065 -0.0872832 5.50054
lowerneck 5.1823 -14.6409 -15.1567
upperneck 0.0159845 -20.4918 14.8864
head 2.27337 -10.3935 6.19337
lclavicle -2.86826e-14 1.73747e-14 0
lhumerus -53.0538 -45.2978 114.828
lradius 107.403 0 0
lwrist 81.7923 0 0
lhand 9.06594 400.067 0
lfingers 7.12502 0 0
lthumb 34.2401 -653.199 0
rclavicle -2.86826e-14 1.73747e-14 0
rhumerus 9.14402 -15.1101 -59.6201
rradius 75.8014 0 0
rwrist 27.3489 0 0
rhand -38.3743 -408.74 0
rfingers 7.12502 0 0
rthumb -11.3995 281.618 0
2550
root 4.18363 13.6843 -23.4784 950.958 83.409 -131.593
lfemur -38.2893 11.2197 -12.105
ltibia 90.1335 0 0
lfoot -27.432 26.1094 0
ltoes -39.1807 0 0
rfemur -57.0773 -24.0701 9.65433
rtibia 63.4186 0 0
rfoot 1.54066 7.36449 0
rtoes 8.16876 0 0
lowerback 16.7645 -0.380491 -3.30248
upperback -1.04299 -0.809075 3.08609
thorax -10.5147 -0.0753652 5.47368
lowerneck 5.19403 -14.656 -15.165
upperneck -0.0110222 -20.5148 14.9569
head 2.27324 -10.406 6.21556
lclavicle -2.86614e-14 1.77671e-14 0
lhumerus -52.7876 -45.536 114.777
lradius 107.247 0 0
lwrist 81.6847 0 0
lhand 9.02942 400.092 0
lfingers 7.12502 0 0
lthumb 34.2056 -653.163 0
rclavicle -2.86614e-14 1.77671e-14 0
rhumerus 9.71391 -14.6552 -59.1954
rradius 75.8959 0 0
rwrist 27.0268 0 0
rhand -38.1986 -408.608 0
rfingers 7.12502 0 0
rthumb -11.2299 281.747 0
2551
root 4.16778 13.6883 -23.5336 952.58 82.7954 -130.054
lfemur -38.4112 11.1389 -12.2408
ltibia 90.1072 0 0
lfoot -27.4085 26.2214 0
ltoes -39.1523 0 0
rfemur -57.1377 -23.8866 9.78781
rtibia 63.7577 0 0
rfoot 1.46125 7.0379 0
rtoes 8.18106 0 0
lowerback 16.7976 -0.356673 -3.29982
upperback -1.02988 -0.780542 3.07054
thorax -10.5239 -0.0626565 5.44767
lowerneck 5.20627 -14.6729 -15.1749
upperneck -0.0375873 -20.5406 15.0321
head 2.27404 -10.4199 6.23916
lclavicle -2.86032e-14 1.81385e-14 0
lhumerus -52.5002 -45.7899 114.722
lradius 107.078 0 0
lwrist 81.5713 0 0
lhand 8.99033 400.123 0
lfingers 7.12502 0 0
lthumb 34.1687 -653.122 0
rclavicle -2.86032e-14 1.81385e-14 0
rhumerus 10.3348 -14.162 -58.7387
rradius 76.0082 0 0
rwrist 26.6934 0 0
rhand -38.0078 -408.465 0
rfingers 7.12502 0 0
rthumb -11.0458 281.887 0
2552
root 4.15067 13.6927 -23.5933 954.309 82.1221 -128.413
lfemur -38.5395 11.0671 -12.3874
ltibia 90.0727 0 0
lfoot -27.3924 26.3379 0
ltoes -39.12 0 0
rfemur -57.2006 -23.6987 9.93346
rtibia 64.1302 0 0
rfoot 1.36898 6.68526 0
rtoes 8.19573 0 0
lowerback 16.8328 -0.331119 -3.30116
upperback -1.01652 -0.750781 3.05404
thorax -10.5343 -0.0491469 5.42261
lowerneck 5.21889 -14.6915 -15.1862
upperneck -0.0635719 -20.5691 15.112
head 2.27581 -10.4351 6.26412
lclavicle -2.85063e-14 1.84865e-14 0
lhumerus -52.1892 -46.0598 114.663
lradius 106.897 0 0
lwrist 81.4516 0 0
lhand 8.94809 400.159 0
lfingers 7.12502 0 0
lthumb 34.1288 -653.074 0
rclavicle -2.85063e-14 1.84865e-14 0
rhumerus 11.0072 -13.629 -58.2497
rradius 76.1391 0 0
rwrist 26.3486 0 0
rhand -37.8016 -408.31 0
rfingers 7.12502 0 0
rthumb -10.8466 282.039 0
2553
root 4.13221 13.6975 -23.6577 956.148 81.3855 -126.667
lfemur -38.6742 11.0052 -12.5449
ltibia 90.03 0 0
lfoot -27.3836 26.4587 0
ltoes -39.0834 0 0
rfemur -57.266 -23.5065 10.0917
rtibia 64.5371 0 0
rfoot 1.26318 6.30585 0
rtoes 8.21265 0 0
lowerback 16.8703 -0.303799 -3.30668
upperback -1.00293 -0.719795 3.03659
thorax -10.5458 -0.034826 5.39862
lowerneck 5.23173 -14.7115 -15.1987
upperneck -0.0888365 -20.5999 15.1965
head 2.27857 -10.4516 6.29038
lclavicle -2.8369e-14 1.88087e-14 0
lhumerus -51.8523 -46.3459 114.597
lradius 106.702 0 0
lwrist 81.325 0 0
lhand 8.90212 400.202 0
lfingers 7.12502 0 0
lthumb 34.0853 -653.019 0
rclavicle -2.8369e-14 1.88087e-14 0
rhumerus 11.7317 -13.0549 -57.7283
rradius 76.2892 0 0
rwrist 25.9928 0 0
rhand -37.5794 -408.143 0
rfingers 7.12502 0 0
rthumb -10.6322 282.203 0
2554
root 4.11236 13.7029 -23.727 958.101 80.582 -124.813
lfemur -38.8152 10.9538 -12.7135
ltibia 89.9786 0 0
lfoot -27.3823 26.5836 0
ltoes -39.0422 0 0
rfemur -57.3335 -23.3103 10.2631
rtibia 64.9789 0 0
rfoot 1.1432 5.89896 0
rtoes 8.23169 0 0
lowerback 16.9099 -0.274682 -3.31657
upperback -0.989134 -0.687586 3.01818
thorax -10.5585 -0.0196837 5.3758
lowerneck 5.24463 -14.7327 -15.2123
upperneck -0.113242 -20.6327 15.2854
head 2.28235 -10.4691 6.31789
lclavicle -2.81896e-14 1.91028e-14 0
lhumerus -51.4869 -46.6485 114.524
lradius 106.495 0 0
lwrist 81.1909 0 0
lhand 8.85184 400.251 0
lfingers 7.12502 0 0
lthumb 34.0378 -652.957 0
rclavicle -2.81896e-14 1.91028e-14 0
rhumerus 12.509 -12.4384 -57.1743
rradius 76.4592 0 0
rwrist 25.626 0 0
rhand -37.3409 -407.963 0
rfingers 7.12502 0 0
rthumb -10.4019 282.379 0
2555
root 4.09103 13.7087 -23.8014 960.17 79.708 -122.85
lfemur -38.9624 10.9136 -12.8931
ltibia 89.9185 0 0
lfoot -27.3885 26.7124 0
ltoes -38.9961 0 0
rfemur -57.403 -23.1106 10.4481
rtibia 65.4565 0 0
rfoot 1.0084 5.4639 0
rtoes 8.25273 0 0
lowerback 16.9518 -0.24374 -3.33102
upperback -0.975145 -0.654157 2.99881
thorax -10.5724 -0.00370961 5.35425
lowerneck 5.25745 -14.7549 -15.2269
upperneck -0.136649 -20.6671 15.3786
head 2.28718 -10.4874 6.34658
lclavicle -2.79665e-14 1.93665e-14 0
lhumerus -51.0908 -46.9679 114.443
lradius 106.275 0 0
lwrist 81.0486 0 0
lhand 8.79666 400.306 0
lfingers 7.12502 0 0
lthumb 33.9856 -652.887 0
rclavicle -2.79665e-14 1.93665e-14 0
rhumerus 13.3396 -11.7782 -56.5875
rradius 76.6498 0 0
rwrist 25.2485 0 0
rhand -37.0856 -407.769 0
rfingers 7.12502 0 0
rthumb -10.1555 282.568 0
2556
root 4.06816 13.715 -23.8809 962.359 78.7601 -120.774
lfemur -39.1157 10.8855 -13.0839
ltibia 89.8492 0 0
lfoot -27.4025 26.8448 0
ltoes -38.9445 0 0
rfemur -57.4742 -22.9074 10.6471
rtibia 65.9707 0 0
rfoot 0.85811 4.99996 0
rtoes 8.27565 0 0
lowerback 16.996 -0.210941 -3.35021
upperback -0.960982 -0.619511 2.97848
thorax -10.5875 0.0131064 5.33408
lowerneck 5.27004 -14.7779 -15.2423
upperneck -0.158918 -20.7028 15.4759
head 2.2931 -10.5065 6.37641
lclavicle -2.76979e-14 1.95974e-14 0
lhumerus -50.6615 -47.3044 114.351
lradius 106.042 0 0
lwrist 80.8977 0 0
lhand 8.73601 400.368 0
lfingers 7.12502 0 0
lthumb 33.9282 -652.809 0
rclavicle -2.76979e-14 1.95974e-14 0
rhumerus 14.224 -11.0731 -55.9679
rradius 76.8617 0 0
rwrist 24.8604 0 0
rhand -36.8131 -407.562 0
rfingers 7.12502 0 0
rthumb -9.8924 282.772 0
2557
root 4.04369 13.7219 -23.9659 964.671 77.7346 -118.582
lfemur -39.275 10.8702 -13.286
ltibia 89.7705 0 0
lfoot -27.4241 26.9806 0
ltoes -38.8873 0 0
rfemur -57.547 -22.7013 10.8606
rtibia 66.5221 0 0
rfoot 0.691689 4.50642 0
rtoes 8.30032 0 0
lowerback 17.0424 -0.176256 -3.37433
upperback -0.946663 -0.583649 2.95717
thorax -10.604 0.0307746 5.3154
lowerneck 5.28224 -14.8013 -15.2584
upperneck -0.179911 -20.7396 15.5773
head 2.30012 -10.526 6.40731
lclavicle -2.73821e-14 1.9793e-14 0
lhumerus -50.1966 -47.6583 114.248
lradius 105.796 0 0
lwrist 80.7376 0 0
lhand 8.66929 400.438 0
lfingers 7.12502 0 0
lthumb 33.865 -652.723 0
rclavicle -2.73821e-14 1.9793e-14 0
rhumerus 15.1629 -10.3216 -55.3151
rradius 77.0955 0 0
rwrist 24.4618 0 0
rhand -36.523 -407.34 0
rfingers 7.12502 0 0
rthumb -9.61231 282.989 0
